<svg width="32" height="32" viewBox="0 0 32 32" fill="none" xmlns="http://www.w3.org/2000/svg">
<path d="M16.0001 2.66699C8.65341 2.66699 2.66675 8.65366 2.66675 16.0003C2.66675 23.347 8.65341 29.3337 16.0001 29.3337C23.3467 29.3337 29.3334 23.347 29.3334 16.0003C29.3334 8.65366 23.3467 2.66699 16.0001 2.66699ZM21.3334 17.0003H17.0001V21.3337C17.0001 21.8803 16.5467 22.3337 16.0001 22.3337C15.4534 22.3337 15.0001 21.8803 15.0001 21.3337V17.0003H10.6667C10.1201 17.0003 9.66675 16.547 9.66675 16.0003C9.66675 15.4537 10.1201 15.0003 10.6667 15.0003H15.0001V10.667C15.0001 10.1203 15.4534 9.66699 16.0001 9.66699C16.5467 9.66699 17.0001 10.1203 17.0001 10.667V15.0003H21.3334C21.8801 15.0003 22.3334 15.4537 22.3334 16.0003C22.3334 16.547 21.8801 17.0003 21.3334 17.0003Z" fill="#BFBEC0"/>
</svg>
