<svg width="8" height="12" viewBox="0 0 8 12" fill="none" xmlns="http://www.w3.org/2000/svg">
<path d="M6.83 10.9997C7.01625 10.8123 7.12079 10.5589 7.12079 10.2947C7.12079 10.0305 7.01625 9.77707 6.83 9.5897L3.29 5.9997L6.83 2.4597C7.01625 2.27234 7.12079 2.01889 7.12079 1.7547C7.12079 1.49052 7.01625 1.23707 6.83 1.0497C6.73703 0.955976 6.62643 0.881582 6.50457 0.830813C6.38271 0.780044 6.25201 0.753906 6.12 0.753906C5.98798 0.753906 5.85728 0.780044 5.73542 0.830813C5.61356 0.881582 5.50296 0.955976 5.41 1.0497L1.17 5.2897C1.07627 5.38267 1.00187 5.49327 0.951105 5.61513C0.900336 5.73699 0.874198 5.86769 0.874198 5.9997C0.874198 6.13172 0.900336 6.26242 0.951105 6.38428C1.00187 6.50614 1.07627 6.61674 1.17 6.7097L5.41 10.9997C5.50296 11.0934 5.61356 11.1678 5.73542 11.2186C5.85728 11.2694 5.98798 11.2955 6.12 11.2955C6.25201 11.2955 6.38271 11.2694 6.50457 11.2186C6.62643 11.1678 6.73703 11.0934 6.83 10.9997Z" fill="#2F383C"/>
</svg>
