<svg width="18" height="18" viewBox="0 0 18 18" fill="none" xmlns="http://www.w3.org/2000/svg">
<path d="M10.875 8.5498H7.125C6.8175 8.5498 6.5625 8.2948 6.5625 7.9873C6.5625 7.6798 6.8175 7.4248 7.125 7.4248H10.875C11.1825 7.4248 11.4375 7.6798 11.4375 7.9873C11.4375 8.2948 11.1825 8.5498 10.875 8.5498Z" fill="#2F383C"/>
<path d="M9 10.4697C8.6925 10.4697 8.4375 10.2147 8.4375 9.90723V6.15723C8.4375 5.84973 8.6925 5.59473 9 5.59473C9.3075 5.59473 9.5625 5.84973 9.5625 6.15723V9.90723C9.5625 10.2147 9.3075 10.4697 9 10.4697Z" fill="#2F383C"/>
<path d="M14.3025 17.0625C13.92 17.0625 13.5 16.95 13.095 16.7175L9.43499 14.685C9.21749 14.565 8.78999 14.565 8.57249 14.685L4.91249 16.7175C4.16999 17.13 3.41249 17.175 2.83499 16.83C2.25749 16.4925 1.92749 15.81 1.92749 14.9625V4.395C1.92749 2.49 3.47999 0.9375 5.38499 0.9375H12.6225C14.5275 0.9375 16.08 2.49 16.08 4.395V14.9625C16.08 15.81 15.75 16.4925 15.1725 16.83C14.91 16.9875 14.61 17.0625 14.3025 17.0625ZM8.99999 13.47C9.35249 13.47 9.69749 13.545 9.97499 13.7025L13.635 15.735C14.0175 15.9525 14.37 15.9975 14.595 15.8625C14.82 15.7275 14.9475 15.405 14.9475 14.9625V4.395C14.9475 3.1125 13.8975 2.0625 12.615 2.0625H5.38499C4.10249 2.0625 3.05249 3.1125 3.05249 4.395V14.9625C3.05249 15.405 3.17999 15.735 3.40499 15.8625C3.62999 15.99 3.98249 15.9525 4.36499 15.735L8.02499 13.7025C8.30249 13.545 8.64749 13.47 8.99999 13.47Z" fill="#2F383C"/>
</svg>
