<svg width="25" height="28" viewBox="0 0 25 28" fill="none" xmlns="http://www.w3.org/2000/svg">
<path d="M11.1785 13.5894C10.9165 13.0254 9.86965 10.5993 9.86965 10.5993C7.95646 11.1189 6.14784 10.3599 5.12524 9.12029C5.12524 9.12029 5.30712 9.18761 5.28428 8.96114C5.26484 8.7689 4.99985 8.64599 4.92004 8.61313C4.97814 8.63394 5.1279 8.67266 5.15502 8.53159C5.18245 8.38884 4.70847 8.10951 4.45107 7.72158C4.61003 7.83228 4.79876 7.92129 4.90366 7.82007C5.10822 7.62269 4.47769 7.14092 4.29081 6.46129C4.70323 3.44359 5.64046 0.0241392 4.6369 0.000119104C3.63334 -0.023901 3.54329 3.59325 3.54329 3.59325C3.54329 3.59325 2.99564 1.76588 2.27571 2.2225C1.55578 2.67904 2.6138 5.6164 2.6138 5.6164C2.6138 5.6164 1.22527 4.03244 0.77033 4.61085C0.315392 5.18935 1.57143 6.71233 1.57143 6.71233C1.57143 6.71233 0.315795 6.19313 0.158931 6.65778C0.00198626 7.12244 0.511553 7.6369 1.05912 8.05215C1.05912 8.05215 0.0909889 7.91173 0.00408434 8.48371C-0.0828202 9.0557 1.24592 9.24473 1.24592 9.24473C1.24592 9.24473 0.166436 9.78369 0.216545 10.3318C0.266574 10.88 1.84861 11.0654 1.84861 11.0654C1.84861 11.0654 0.750318 11.0854 0.886202 11.708C1.02201 12.3306 2.74711 12.2146 2.74711 12.2146C2.74711 12.2146 1.2502 12.4106 1.63155 13.0155C1.77857 13.2486 2.48768 13.2175 2.87791 13.2258C2.47857 13.3334 2.09157 13.5052 2.25255 13.7497C2.55627 14.2109 4.23191 13.877 4.23191 13.877C4.23191 13.877 3.08811 14.135 3.50633 14.5929C3.74744 14.8568 4.26507 14.7532 4.66054 14.6182C4.39119 14.8492 4.15162 15.1505 4.38175 15.3697C4.80812 15.7759 5.88293 15.1329 5.88293 15.1329C5.88293 15.1329 5.05915 15.9561 5.53112 16.1615C6.00308 16.3669 6.63958 16.0062 7.00858 15.5574C7.00858 15.5574 6.4878 16.4031 6.99768 16.5093C7.50757 16.6155 8.16488 15.5757 8.16488 15.5757C8.16488 15.5757 7.73706 16.4005 8.20926 16.6029C8.68147 16.8053 9.28173 15.4551 9.28173 15.4551C9.28173 15.4551 9.03764 16.5257 9.58554 16.5326C10.1334 16.5395 10.1722 15.4196 10.1722 15.4196C10.1722 15.4196 10.1892 16.2035 10.8232 15.8766C11.4572 15.5498 11.4406 14.1534 11.1785 13.5894Z" fill="#DEE9F0"/>
<path d="M13.8214 13.5894C14.0835 13.0254 15.1303 10.5993 15.1303 10.5993C17.0435 11.1189 18.8521 10.3599 19.8747 9.12029C19.8747 9.12029 19.6928 9.18761 19.7156 8.96114C19.7351 8.7689 20.0001 8.64599 20.0799 8.61313C20.0218 8.63394 19.872 8.67266 19.8449 8.53159C19.8175 8.38884 20.2914 8.10951 20.5489 7.72158C20.3899 7.83228 20.2012 7.92129 20.0963 7.82007C19.8917 7.62269 20.5223 7.14092 20.7091 6.46129C20.2967 3.44359 19.3595 0.0241392 20.363 0.000119104C21.3666 -0.023901 21.4566 3.59325 21.4566 3.59325C21.4566 3.59325 22.0043 1.76588 22.7242 2.2225C23.4441 2.67904 22.3861 5.6164 22.3861 5.6164C22.3861 5.6164 23.7746 4.03244 24.2296 4.61085C24.6845 5.18935 23.4284 6.71233 23.4284 6.71233C23.4284 6.71233 24.684 6.19313 24.8409 6.65778C24.9978 7.12244 24.4883 7.6369 23.9407 8.05215C23.9407 8.05215 24.9088 7.91173 24.9957 8.48371C25.0827 9.0557 23.7539 9.24473 23.7539 9.24473C23.7539 9.24473 24.8334 9.78369 24.7833 10.3318C24.7333 10.88 23.1512 11.0654 23.1512 11.0654C23.1512 11.0654 24.2495 11.0854 24.1136 11.708C23.9778 12.3306 22.2527 12.2146 22.2527 12.2146C22.2527 12.2146 23.7496 12.4106 23.3683 13.0155C23.2213 13.2486 22.5122 13.2175 22.1219 13.2258C22.5213 13.3334 22.9083 13.5052 22.7473 13.7497C22.4436 14.2109 20.7679 13.877 20.7679 13.877C20.7679 13.877 21.9117 14.135 21.4935 14.5929C21.2524 14.8568 20.7348 14.7532 20.3393 14.6182C20.6086 14.8492 20.8482 15.1505 20.6181 15.3697C20.1917 15.7759 19.1169 15.1329 19.1169 15.1329C19.1169 15.1329 19.9406 15.9561 19.4686 16.1615C18.9967 16.3669 18.3602 16.0062 17.9912 15.5574C17.9912 15.5574 18.512 16.4031 18.0021 16.5093C17.4922 16.6155 16.8349 15.5757 16.8349 15.5757C16.8349 15.5757 17.2627 16.4005 16.7905 16.6029C16.3183 16.8053 15.718 15.4551 15.718 15.4551C15.718 15.4551 15.9621 16.5257 15.4142 16.5326C14.8663 16.5395 14.8276 15.4196 14.8276 15.4196C14.8276 15.4196 14.8106 16.2035 14.1766 15.8766C13.5427 15.5498 13.5593 14.1534 13.8214 13.5894Z" fill="#DEE9F0"/>
<path d="M16.0791 23.175C15.9826 22.7648 14.189 19.6781 14.5539 19.3594H12.5001H10.4463C10.8111 19.6781 9.0177 22.7648 8.9212 23.175C8.82469 23.5851 9.17852 23.6498 9.33942 23.4988C9.33942 23.4988 8.85688 24.3191 9.0499 24.427C9.24291 24.5349 9.50032 24.427 9.50032 24.427C9.50032 24.427 9.11429 25.2257 9.37161 25.3552C9.62894 25.4847 9.82203 25.2473 9.82203 25.2473C9.82203 25.2473 9.56471 26.1323 9.88635 26.2186C10.2081 26.305 10.3778 26.0675 10.3778 26.0675C10.3778 26.0675 10.0649 26.7367 10.3778 26.8446C10.6906 26.9525 10.8595 26.7042 10.8595 26.7042C10.8595 26.7042 10.7147 27.3194 11.0525 27.368C11.3903 27.4166 11.4627 27.1576 11.4627 27.1576C11.4627 27.1576 11.4385 27.8051 11.7763 27.8214C12.1141 27.8376 12.1382 27.5624 12.1382 27.5624C12.1382 27.5624 12.2106 27.9995 12.5001 27.9995C12.7896 27.9995 12.862 27.5624 12.862 27.5624C12.862 27.5624 12.8861 27.8376 13.2239 27.8214C13.5617 27.8051 13.5375 27.1576 13.5375 27.1576C13.5375 27.1576 13.6099 27.4166 13.9477 27.368C14.2855 27.3194 14.1407 26.7042 14.1407 26.7042C14.1407 26.7042 14.3096 26.9525 14.6224 26.8446C14.9353 26.7366 14.6224 26.0675 14.6224 26.0675C14.6224 26.0675 14.7921 26.305 15.1139 26.2186C15.4356 26.1322 15.1782 25.2473 15.1782 25.2473C15.1782 25.2473 15.3712 25.4847 15.6286 25.3552C15.8859 25.2257 15.4999 24.427 15.4999 24.427C15.4999 24.427 15.7572 24.5349 15.9503 24.427C16.1433 24.319 15.6608 23.4988 15.6608 23.4988C15.8217 23.6498 16.1756 23.5851 16.0791 23.175Z" fill="#F0F8F7"/>
<path d="M15.2024 10.5607C14.189 9.43164 14.5268 8.18259 14.4544 7.48593C14.3821 6.78935 13.8513 5.276 12.5001 5.276C11.1489 5.276 10.6181 6.78935 10.5458 7.48593C10.4734 8.18251 10.8111 9.43164 9.79782 10.5607C8.78442 11.6897 8.83267 13.4432 8.88093 14.9806C8.92918 16.518 10.3769 20.7697 12.5001 20.7697C14.6233 20.7697 16.071 16.518 16.1193 14.9806C16.1674 13.4432 16.2157 11.6897 15.2024 10.5607Z" fill="#F0F8F7"/>
<path d="M11.5937 10.6688C11.9798 10.7288 10.7573 9.16753 10.5378 7.9679C10.5548 8.68022 10.6078 9.6587 9.79802 10.5608C9.3727 11.0346 9.13482 11.6187 9.00507 12.2504C9.40828 10.7531 11.2077 10.6087 11.5937 10.6688Z" fill="#DEE9F0"/>
<path d="M10.5 18.5517C9.40972 17.3457 8.88539 15.2316 8.86505 13.6216C8.85367 14.0792 8.86747 14.5388 8.88127 14.9806C8.92952 16.518 10.3772 20.7697 12.5004 20.7697V20.1531C12.5004 20.1531 11.9477 20.1531 10.5 18.5517Z" fill="#DEE9F0"/>
<path d="M13.4069 10.7029C13.0208 10.7629 14.2433 9.20159 14.4628 8.00195C14.4458 8.71428 14.3928 9.69276 15.2026 10.5948C15.6279 11.0687 15.8658 11.6528 15.9955 12.2844C15.5923 10.7872 13.7929 10.6429 13.4069 10.7029Z" fill="#DEE9F0"/>
<path d="M14.5005 18.5868C15.5907 17.3807 16.1151 15.2666 16.1355 13.6566C16.1468 14.1142 16.133 14.5738 16.1192 15.0156C16.0709 16.553 14.6232 20.8047 12.5 20.8047V20.1882C12.5 20.1882 13.0528 20.1882 14.5005 18.5868Z" fill="#DEE9F0"/>
<path d="M14.4542 7.48593C14.3819 6.78935 13.8511 5.276 12.4999 5.276C11.1487 5.276 10.6179 6.78935 10.5455 7.48593C10.531 7.62595 10.533 7.78855 10.5373 7.96778C10.5374 7.96738 10.833 5.56424 12.4999 5.56424C14.1221 5.56424 14.4455 7.87315 14.4617 7.99726C14.4665 7.80639 14.4696 7.63367 14.4542 7.48593Z" fill="white"/>
<path d="M0.381962 8.48165C0.349766 8.08423 1.05912 8.0521 1.05912 8.0521C1.05912 8.0521 0.0909889 7.91167 0.00408434 8.48358C-0.0828202 9.05556 1.24592 9.24459 1.24592 9.24459C1.24592 9.24459 0.414077 8.87906 0.381962 8.48165Z" fill="white"/>
<path d="M0.574767 6.98707C0.655216 6.60058 1.57122 6.71217 1.57122 6.71217C1.57122 6.71217 0.315586 6.19296 0.158722 6.65762C0.00177725 7.12227 0.511344 7.63674 1.05892 8.05199C1.05892 8.05199 0.494318 7.37356 0.574767 6.98707Z" fill="white"/>
<path d="M0.70375 10.2243C0.558989 9.77588 1.24592 9.24463 1.24592 9.24463C1.24592 9.24463 0.166426 9.78359 0.216536 10.3317C0.266564 10.8799 1.8486 11.0653 1.8486 11.0653C1.8486 11.0653 0.848591 10.6727 0.70375 10.2243Z" fill="white"/>
<path d="M4.53184 0.647859C5.25435 0.631872 4.67572 4.09085 4.67362 4.10346C5.05827 1.90116 5.38064 0.0178731 4.63682 0.000119104C3.63327 -0.023901 3.54321 3.59325 3.54321 3.59325C3.54321 3.59325 3.80804 0.663845 4.53184 0.647859Z" fill="white"/>
<path d="M1.29881 11.6693C1.2023 11.3524 1.84856 11.0657 1.84856 11.0657C1.84856 11.0657 0.750271 11.0857 0.886156 11.7083C1.02196 12.3309 2.74706 12.2149 2.74706 12.2149C2.74706 12.2149 1.39532 11.9862 1.29881 11.6693Z" fill="white"/>
<path d="M2.50533 2.76159C2.98552 2.5536 3.54342 3.59306 3.54342 3.59306C3.54342 3.59306 2.99577 1.76568 2.27584 2.2223C1.55591 2.67885 2.61394 5.61621 2.61394 5.61621C2.61394 5.61621 2.02505 2.96958 2.50533 2.76159Z" fill="white"/>
<path d="M1.20213 5.06789C1.55604 4.79564 2.61366 5.6165 2.61366 5.6165C2.61366 5.6165 1.22512 4.03254 0.770185 4.61095C0.315247 5.18944 1.57129 6.71242 1.57129 6.71242C1.57129 6.71242 0.848294 5.34006 1.20213 5.06789Z" fill="white"/>
<path d="M4.66092 15.2203C4.32314 15.0602 4.66084 14.6177 4.66084 14.6177C4.39149 14.8487 4.15192 15.1501 4.38205 15.3692C4.80842 15.7754 5.88323 15.1325 5.88323 15.1325C5.88323 15.1325 4.99869 15.3804 4.66092 15.2203Z" fill="white"/>
<path d="M7.13783 16.2295C6.72316 16.1654 7.00865 15.5574 7.00865 15.5574C7.00865 15.5574 6.48786 16.4031 6.99775 16.5093C7.50764 16.6155 8.16495 15.5758 8.16495 15.5758C8.16495 15.5758 7.55251 16.2936 7.13783 16.2295Z" fill="white"/>
<path d="M9.00479 15.941C9.00479 15.941 8.5212 16.4054 8.2316 16.3253C7.94208 16.2452 8.16495 15.5754 8.16495 15.5754C8.16495 15.5754 7.73713 16.4002 8.20933 16.6026C8.47545 16.7167 8.78232 16.3374 8.99946 15.9848L9.00479 15.941Z" fill="white"/>
<path d="M1.94236 12.824C1.95486 12.4771 2.74709 12.2146 2.74709 12.2146C2.74709 12.2146 1.25019 12.4105 1.63153 13.0155C1.77855 13.2486 2.48767 13.2175 2.87789 13.2258C2.87789 13.2258 1.92985 13.171 1.94236 12.824Z" fill="white"/>
<path d="M5.8028 15.9737C5.29009 15.8455 5.88301 15.1333 5.88301 15.1333C5.88301 15.1333 5.05923 15.9564 5.53119 16.1618C6.00316 16.3672 6.63965 16.0065 7.00865 15.5577C7.00865 15.5577 6.31551 16.1019 5.8028 15.9737Z" fill="white"/>
<path d="M2.53763 13.6568C2.49003 13.3709 2.87807 13.2261 2.87807 13.2261C2.47873 13.3336 2.09173 13.5055 2.25271 13.7499C2.55643 14.2111 4.23207 13.8773 4.23207 13.8773C4.23207 13.8773 2.58524 13.9428 2.53763 13.6568Z" fill="white"/>
<path d="M3.74351 14.4203C3.56816 14.0849 4.23161 13.8772 4.23161 13.8772C4.23161 13.8772 3.08781 14.1352 3.50603 14.5931C3.74714 14.857 4.26477 14.7534 4.66024 14.6184C4.66024 14.6184 3.91885 14.7556 3.74351 14.4203Z" fill="white"/>
<path d="M24.6182 8.48165C24.6504 8.08423 23.941 8.0521 23.941 8.0521C23.941 8.0521 24.9091 7.91167 24.996 8.48358C25.083 9.05556 23.7542 9.24459 23.7542 9.24459C23.7542 9.24459 24.5861 8.87906 24.6182 8.48165Z" fill="white"/>
<path d="M24.4245 6.98715C24.344 6.60066 23.428 6.71217 23.428 6.71217C23.428 6.71217 24.6837 6.19296 24.8405 6.65762C24.9975 7.12227 24.4879 7.63674 23.9403 8.05199C23.9403 8.05199 24.5049 7.37364 24.4245 6.98715Z" fill="white"/>
<path d="M24.296 10.2243C24.4408 9.77588 23.7539 9.24463 23.7539 9.24463C23.7539 9.24463 24.8334 9.78359 24.7832 10.3317C24.7332 10.8799 23.1512 11.0653 23.1512 11.0653C23.1512 11.0653 24.1513 10.6727 24.296 10.2243Z" fill="white"/>
<path d="M20.4679 0.647859C19.7454 0.631872 20.324 4.09085 20.3261 4.10346C19.9415 1.90116 19.6191 0.0178731 20.3629 0.000119104C21.3665 -0.023901 21.4565 3.59325 21.4565 3.59325C21.4565 3.59325 21.1918 0.663845 20.4679 0.647859Z" fill="white"/>
<path d="M23.701 11.6688C23.7975 11.3519 23.1512 11.0652 23.1512 11.0652C23.1512 11.0652 24.2495 11.0852 24.1136 11.7078C23.9778 12.3305 22.2527 12.2145 22.2527 12.2145C22.2527 12.2145 23.6045 11.9857 23.701 11.6688Z" fill="white"/>
<path d="M22.4945 2.76159C22.0143 2.5536 21.4564 3.59306 21.4564 3.59306C21.4564 3.59306 22.004 1.76568 22.7239 2.2223C23.4439 2.67885 22.3858 5.61621 22.3858 5.61621C22.3858 5.61621 22.9747 2.96958 22.4945 2.76159Z" fill="white"/>
<path d="M23.7975 5.06789C23.4437 4.79564 22.386 5.6165 22.386 5.6165C22.386 5.6165 23.7746 4.03254 24.2295 4.61095C24.6845 5.18944 23.4283 6.71242 23.4283 6.71242C23.4283 6.71242 24.1514 5.34006 23.7975 5.06789Z" fill="white"/>
<path d="M20.3393 15.2203C20.6771 15.0602 20.3394 14.6177 20.3394 14.6177C20.6087 14.8487 20.8483 15.1501 20.6182 15.3692C20.1918 15.7754 19.117 15.1325 19.117 15.1325C19.117 15.1325 20.0015 15.3804 20.3393 15.2203Z" fill="white"/>
<path d="M17.8619 16.2295C18.2766 16.1654 17.9911 15.5574 17.9911 15.5574C17.9911 15.5574 18.5119 16.4031 18.002 16.5093C17.4921 16.6155 16.8348 15.5758 16.8348 15.5758C16.8348 15.5758 17.4472 16.2936 17.8619 16.2295Z" fill="white"/>
<path d="M15.9954 15.941C15.9954 15.941 16.479 16.4054 16.7686 16.3253C17.0581 16.2452 16.8353 15.5754 16.8353 15.5754C16.8353 15.5754 17.2631 16.4002 16.7909 16.6026C16.5248 16.7167 16.2179 16.3374 16.0007 15.9848L15.9954 15.941Z" fill="white"/>
<path d="M23.0574 12.824C23.0449 12.4771 22.2527 12.2146 22.2527 12.2146C22.2527 12.2146 23.7496 12.4105 23.3682 13.0155C23.2213 13.2486 22.5121 13.2175 22.1219 13.2258C22.1219 13.2258 23.0699 13.171 23.0574 12.824Z" fill="white"/>
<path d="M19.1974 15.9737C19.7102 15.8455 19.1172 15.1333 19.1172 15.1333C19.1172 15.1333 19.9409 15.9564 19.469 16.1618C18.997 16.3672 18.3605 16.0065 17.9915 15.5577C17.9915 15.5577 18.6847 16.1019 19.1974 15.9737Z" fill="white"/>
<path d="M22.4628 13.6568C22.5104 13.3709 22.1224 13.2261 22.1224 13.2261C22.5217 13.3336 22.9087 13.5055 22.7477 13.7499C22.444 14.2111 20.7684 13.8773 20.7684 13.8773C20.7684 13.8773 22.4152 13.9428 22.4628 13.6568Z" fill="white"/>
<path d="M21.2559 14.4203C21.4312 14.0849 20.7678 13.8772 20.7678 13.8772C20.7678 13.8772 21.9116 14.1352 21.4934 14.5931C21.2523 14.857 20.7346 14.7534 20.3392 14.6184C20.3392 14.6184 21.0806 14.7556 21.2559 14.4203Z" fill="white"/>
<path d="M9.9613 9.13468C9.92249 9.13468 9.9003 9.13388 9.89893 9.1338L9.90102 9.08584C9.9095 9.08624 10.763 9.11813 11.3441 8.76153C11.9358 8.39849 12.5742 8.29133 12.5806 8.29028L12.5884 8.33768C12.5822 8.33872 11.9528 8.44453 11.3694 8.80242C10.8681 9.10994 10.1715 9.13468 9.9613 9.13468Z" fill="#699C21"/>
<path d="M10.0327 9.11006C10.0327 9.11006 9.66136 9.57223 9.14324 9.44289C8.63754 9.3166 8.4292 9.21715 8.4292 9.21715C8.4292 9.21715 9.3636 8.20075 10.0327 9.11006Z" fill="#75AF2B"/>
<path d="M8.4292 9.21799C8.4292 9.21799 8.95006 8.97166 9.37652 9.12038C9.77594 9.2596 10.0328 9.11072 10.0328 9.11072C9.36361 8.19983 8.4292 9.21799 8.4292 9.21799Z" fill="#699C21"/>
<path d="M10.784 9.01156C10.784 9.01156 10.1904 9.04369 9.94221 8.57269C9.69997 8.11301 9.63574 7.89209 9.63574 7.89209C9.63574 7.89209 11.0197 7.90896 10.784 9.01156Z" fill="#75AF2B"/>
<path d="M9.63574 7.89209C9.63574 7.89209 10.1669 8.1151 10.3397 8.53067C10.5016 8.91989 10.784 9.01155 10.784 9.01155C11.0197 7.90896 9.63574 7.89209 9.63574 7.89209Z" fill="#699C21"/>
<path d="M11.9713 8.4784C11.9713 8.4784 11.4011 8.64598 11.0505 8.2447C10.7083 7.85307 10.5946 7.6528 10.5946 7.6528C10.5946 7.6528 11.9451 7.35146 11.9713 8.4784Z" fill="#75AF2B"/>
<path d="M10.5946 7.6528C10.5946 7.6528 11.1631 7.74783 11.4275 8.11247C11.6752 8.45398 11.9712 8.4784 11.9712 8.4784C11.9451 7.35146 10.5946 7.6528 10.5946 7.6528Z" fill="#699C21"/>
<path d="M11.3915 8.79211C11.3915 8.79211 10.827 8.97745 10.7682 9.50605C10.7107 10.022 10.7318 10.2511 10.7318 10.2511C10.7318 10.2511 12.0145 9.7334 11.3915 8.79211Z" fill="#75AF2B"/>
<path d="M10.7316 10.2509C10.7316 10.2509 11.1446 9.8506 11.1535 9.40089C11.1619 8.97969 11.3913 8.79187 11.3913 8.79187C12.0142 9.73323 10.7316 10.2509 10.7316 10.2509Z" fill="#699C21"/>
<path d="M10.2619 9.1012C10.2619 9.1012 9.76956 9.21093 9.67564 9.65253C9.58397 10.0835 9.58252 10.2788 9.58252 10.2788C9.58252 10.2788 10.7092 9.94792 10.2619 9.1012Z" fill="#75AF2B"/>
<path d="M9.58252 10.2789C9.58252 10.2789 9.96492 9.97504 10.0101 9.59602C10.0525 9.24094 10.2619 9.10132 10.2619 9.10132C10.7092 9.94813 9.58252 10.2789 9.58252 10.2789Z" fill="#699C21"/>
<path d="M14.4538 8.79325C13.7095 8.36175 12.8789 8.25447 12.4222 8.3372L12.4136 8.28988C12.8787 8.20538 13.7232 8.31394 14.478 8.75165L14.4538 8.79325Z" fill="#699C21"/>
<path d="M16.0791 23.1758C16.0457 23.0337 15.8084 22.5702 15.528 22.012C15.8929 22.7433 16.0126 23.3721 15.723 23.26C15.4335 23.148 15.4335 23.148 15.4335 23.148C15.4335 23.148 15.9009 24.0127 15.6592 24.1249C15.4174 24.2369 15.2083 24.0288 15.2083 24.0288C15.2083 24.0288 15.7531 24.7952 15.4657 25.0216C15.1783 25.248 14.9992 24.8295 14.9992 24.8295C14.9992 24.8295 15.2566 26.0306 14.9027 25.9664C14.5489 25.9024 14.4523 25.5821 14.4523 25.5821C14.4523 25.5821 14.5736 26.575 14.3199 26.559C14.0662 26.543 13.9537 26.2387 13.9537 26.2387C13.9537 26.2387 14.0802 27.0165 13.8089 27.0874C13.5376 27.1584 13.4389 26.7351 13.4389 26.7351C13.4389 26.7351 13.5333 27.4765 13.1977 27.5198C12.8621 27.5631 12.876 27.0714 12.876 27.0714C12.876 27.0714 12.8621 27.6639 12.5002 27.6639C12.1383 27.6639 12.1243 27.0714 12.1243 27.0714C12.1243 27.0714 12.1382 27.5631 11.8026 27.5198C11.467 27.4765 11.5613 26.7351 11.5613 26.7351C11.5613 26.7351 11.4627 27.1584 11.1914 27.0874C10.9201 27.0165 11.0466 26.2387 11.0466 26.2387C11.0466 26.2387 10.934 26.543 10.6803 26.559C10.4267 26.575 10.548 25.5821 10.548 25.5821C10.548 25.5821 10.4515 25.9024 10.0976 25.9664C9.74376 26.0305 10.0011 24.8295 10.0011 24.8295C10.0011 24.8295 9.82195 25.2481 9.53461 25.0216C9.24727 24.7952 9.79194 24.0288 9.79194 24.0288C9.79194 24.0288 9.58287 24.2369 9.34111 24.1249C9.09936 24.0128 9.56681 23.148 9.56681 23.148C9.56681 23.148 9.56681 23.148 9.27729 23.26C8.98777 23.3721 9.10743 22.7433 9.47232 22.012C9.19183 22.5702 8.9546 23.0337 8.9212 23.1758C8.82469 23.5859 9.17852 23.6506 9.33942 23.4996C9.33942 23.4996 8.85688 24.3199 9.0499 24.4278C9.24291 24.5357 9.50032 24.4278 9.50032 24.4278C9.50032 24.4278 9.11429 25.2265 9.37161 25.356C9.62894 25.4855 9.82203 25.248 9.82203 25.248C9.82203 25.248 9.56471 26.1331 9.88635 26.2193C10.2081 26.3057 10.3778 26.0682 10.3778 26.0682C10.3778 26.0682 10.0649 26.7374 10.3778 26.8453C10.6906 26.9532 10.8595 26.705 10.8595 26.705C10.8595 26.705 10.7147 27.3202 11.0525 27.3687C11.3903 27.4173 11.4627 27.1582 11.4627 27.1582C11.4627 27.1582 11.4385 27.8058 11.7763 27.822C12.1141 27.8382 12.1382 27.563 12.1382 27.563C12.1382 27.563 12.2106 28.0001 12.5001 28.0001C12.7896 28.0001 12.862 27.563 12.862 27.563C12.862 27.563 12.8861 27.8382 13.2239 27.822C13.5617 27.8058 13.5375 27.1582 13.5375 27.1582C13.5375 27.1582 13.6099 27.4172 13.9477 27.3687C14.2855 27.3201 14.1407 26.705 14.1407 26.705C14.1407 26.705 14.3096 26.9532 14.6224 26.8453C14.9353 26.7373 14.6224 26.0682 14.6224 26.0682C14.6224 26.0682 14.7921 26.3057 15.1139 26.2193C15.4356 26.133 15.1782 25.248 15.1782 25.248C15.1782 25.248 15.3712 25.4855 15.6286 25.356C15.8859 25.2265 15.4999 24.4278 15.4999 24.4278C15.4999 24.4278 15.7572 24.5357 15.9503 24.4278C16.1433 24.3198 15.6608 23.4996 15.6608 23.4996C15.8217 23.6506 16.1756 23.5859 16.0791 23.1758Z" fill="white"/>
<path d="M12.4998 7.36804C12.1982 7.36804 12.0293 7.88451 12.0293 7.96854C12.0293 8.05265 12.3429 8.86934 12.4998 8.86934C12.6567 8.86934 12.9703 8.05265 12.9703 7.96854C12.9703 7.88451 12.8014 7.36804 12.4998 7.36804Z" fill="#F15A24"/>
<path d="M12.2191 7.69251C12.1869 7.75665 12.2432 7.9732 12.2754 7.91711C12.3076 7.86094 12.2513 7.62829 12.2191 7.69251Z" fill="#AD4524"/>
<path d="M12.7803 7.69239C12.8125 7.75652 12.7562 7.97308 12.724 7.91699C12.6919 7.86082 12.7481 7.62817 12.7803 7.69239Z" fill="#AD4524"/>
<path d="M12.4844 8.86731C12.4896 8.86892 12.4947 8.86973 12.4996 8.86973C12.4945 8.86965 12.4895 8.86844 12.4844 8.86731Z" fill="#AD4524"/>
<path d="M12.0293 7.96882C12.0293 8.03213 12.2071 8.51076 12.362 8.74341C12.2297 8.52096 12.1054 8.06298 12.0541 7.85876C12.0378 7.90986 12.0293 7.9501 12.0293 7.96882Z" fill="#AD4524"/>
<path d="M12.9706 7.969C12.9706 7.95197 12.9636 7.91702 12.95 7.87244C12.9019 8.05938 12.7843 8.48427 12.6566 8.71459C12.8066 8.47342 12.9706 8.02981 12.9706 7.969Z" fill="#AD4524"/>
<path d="M11.6036 7.10887C11.6036 7.27717 11.4898 7.41366 11.3494 7.41366C11.209 7.41366 11.0952 7.27725 11.0952 7.10887C11.0952 6.94057 11.209 6.80408 11.3494 6.80408C11.4898 6.80408 11.6036 6.94057 11.6036 7.10887Z" fill="#ED1C24"/>
<path d="M11.5655 7.1091C11.5655 7.25258 11.4686 7.36895 11.3491 7.36895C11.2296 7.36895 11.1328 7.25258 11.1328 7.1091C11.1328 6.96561 11.2296 6.84924 11.3491 6.84924C11.4686 6.84924 11.5655 6.96553 11.5655 7.1091Z" fill="#333333"/>
<path d="M11.4684 7.10927C11.4928 7.10927 11.5126 7.07886 11.5126 7.04133C11.5126 7.00381 11.4928 6.97339 11.4684 6.97339C11.444 6.97339 11.4242 7.00381 11.4242 7.04133C11.4242 7.07886 11.444 7.10927 11.4684 7.10927Z" fill="white"/>
<path d="M13.3315 7.10887C13.3315 7.27717 13.4453 7.41366 13.5857 7.41366C13.7261 7.41366 13.8399 7.27725 13.8399 7.10887C13.8399 6.94057 13.7261 6.80408 13.5857 6.80408C13.4453 6.80408 13.3315 6.94057 13.3315 7.10887Z" fill="#ED1C24"/>
<path d="M13.3691 7.1091C13.3691 7.25258 13.466 7.36895 13.5855 7.36895C13.705 7.36895 13.8018 7.25258 13.8018 7.1091C13.8018 6.96561 13.7049 6.84924 13.5855 6.84924C13.466 6.84924 13.3691 6.96553 13.3691 7.1091Z" fill="#333333"/>
<path d="M13.4661 7.10927C13.4905 7.10927 13.5103 7.07886 13.5103 7.04133C13.5103 7.00381 13.4905 6.97339 13.4661 6.97339C13.4417 6.97339 13.4219 7.00381 13.4219 7.04133C13.4219 7.07886 13.4417 7.10927 13.4661 7.10927Z" fill="white"/>
<path d="M11.8826 16.9279C11.8826 16.9279 11.98 17.7183 11.9944 17.8619C12.0089 18.0056 11.9952 18.2714 11.9385 18.3002C11.8819 18.3291 11.7779 18.2355 11.7779 18.2355L11.6841 17.7469L11.8826 16.9279Z" fill="#F77A1E"/>
<path d="M11.6118 18.5801C11.6118 18.5801 11.7128 19.0005 11.7922 19.0274C11.8716 19.0544 11.8356 18.5729 11.8356 18.5729L11.7278 18.3789L11.6118 18.5801Z" fill="#808080"/>
<path d="M11.251 18.7085C11.251 18.7085 11.3664 19.0556 11.4458 19.0628C11.5252 19.07 11.5036 18.7085 11.5036 18.7085L11.3787 18.5374L11.251 18.7085Z" fill="#808080"/>
<path d="M11.4103 16.7054C11.2401 16.7372 11.0279 16.7413 10.9556 16.8491C10.8835 16.9569 10.7391 17.6179 10.7031 17.7114C10.667 17.8048 10.8667 18.6454 10.9004 18.6957C10.934 18.746 10.9845 18.631 11.0784 18.6382C11.1722 18.6453 11.074 18.1352 11.022 18.0203C10.9701 17.9053 11.1216 17.4096 11.1216 17.4096C11.1216 17.4096 11.1 17.9413 11.1 18.0131C11.1 18.0849 11.2371 18.6566 11.2515 18.7085C11.266 18.7604 11.4464 18.6351 11.5041 18.7085C11.5618 18.7819 11.432 18.0706 11.432 17.9557C11.432 17.8407 11.5048 17.3953 11.5189 17.3809C11.533 17.3665 11.5121 17.9054 11.5189 17.9844C11.5258 18.0635 11.6052 18.5233 11.6124 18.5808C11.6196 18.6383 11.7567 18.4946 11.8361 18.5736C11.9155 18.6527 11.8795 18.0419 11.8361 17.9054C11.7928 17.7689 11.894 17.0216 11.8831 16.9282C11.8722 16.8348 11.6918 16.6528 11.4103 16.7054Z" fill="#F7931E"/>
<path d="M10.9004 18.6956C10.9774 18.8756 11.1216 19.0484 11.165 19.0267C11.2083 19.0052 11.1159 18.5662 11.1159 18.5662L10.9004 18.6956Z" fill="#808080"/>
<path d="M13.2095 16.9279C13.2095 16.9279 13.1121 17.7183 13.0976 17.8619C13.0832 18.0056 13.0968 18.2714 13.1535 18.3002C13.2102 18.3291 13.3141 18.2355 13.3141 18.2355L13.408 17.7469L13.2095 16.9279Z" fill="#F77A1E"/>
<path d="M13.4795 18.5801C13.4795 18.5801 13.3785 19.0005 13.2991 19.0274C13.2197 19.0544 13.2557 18.5729 13.2557 18.5729L13.3635 18.3789L13.4795 18.5801Z" fill="#808080"/>
<path d="M13.8408 18.7085C13.8408 18.7085 13.7253 19.0556 13.6459 19.0628C13.5665 19.07 13.5881 18.7085 13.5881 18.7085L13.7131 18.5374L13.8408 18.7085Z" fill="#808080"/>
<path d="M13.6822 16.7052C13.8524 16.737 14.0647 16.7411 14.1369 16.8489C14.2091 16.9567 14.3534 17.6177 14.3894 17.7111C14.4255 17.8046 14.2258 18.6452 14.1921 18.6955C14.1585 18.7458 14.108 18.6308 14.0141 18.6379C13.9203 18.6451 14.0185 18.135 14.0705 18.02C14.1224 17.9051 13.9709 17.4093 13.9709 17.4093C13.9709 17.4093 13.9925 17.941 13.9925 18.0129C13.9925 18.0847 13.8554 18.6563 13.841 18.7082C13.8265 18.7601 13.6461 18.6348 13.5883 18.7082C13.5306 18.7817 13.6605 18.0704 13.6605 17.9554C13.6605 17.8405 13.5876 17.395 13.5735 17.3806C13.5594 17.3662 13.5803 17.9051 13.5735 17.9842C13.5666 18.0632 13.4872 18.5231 13.48 18.5806C13.4729 18.638 13.3357 18.4944 13.2563 18.5734C13.1769 18.6524 13.213 18.0416 13.2563 17.9051C13.2996 17.7686 13.1984 17.0214 13.2093 16.9279C13.2203 16.8345 13.4007 16.6526 13.6822 16.7052Z" fill="#F7931E"/>
<path d="M14.1922 18.6956C14.1152 18.8756 13.9709 19.0484 13.9276 19.0267C13.8842 19.0052 13.9766 18.5662 13.9766 18.5662L14.1922 18.6956Z" fill="#808080"/>
<path d="M10.1938 16.2208C10.1938 16.2208 10.2421 16.8947 10.4834 16.8665C10.7246 16.8383 10.6801 16.6782 10.6801 16.6782C10.6801 16.6782 10.6168 16.9606 10.9361 17.0196C11.2555 17.0786 11.2718 16.6239 11.2718 16.6239C11.2718 16.6239 11.3222 17.0986 11.5929 17.0986C11.8636 17.0986 11.9807 16.7423 11.9807 16.7423C11.9807 16.7423 11.9311 17.2169 12.2528 17.1958C12.5745 17.1746 12.6066 16.7087 12.6066 16.7087C12.6066 16.7087 12.7514 17.2649 12.9283 17.1958C13.1053 17.1266 13.238 16.6239 13.238 16.6239C13.238 16.6239 13.2383 17.1509 13.5095 17.0987C13.7808 17.0466 13.7427 16.6239 13.7427 16.6239C13.7427 16.6239 13.9084 17.0368 14.1663 16.9616C14.4242 16.8864 14.4232 16.5172 14.4232 16.5172C14.4232 16.5172 14.42 16.8267 14.6633 16.8085C14.9067 16.7903 14.9067 16.3899 14.9067 16.3899" fill="#F0F8F7"/>
<path d="M13.2921 8.33362C13.2921 8.33362 12.9614 8.82543 13.2415 9.27828C13.5149 9.72028 13.673 9.88802 13.673 9.88802C13.673 9.88802 14.3647 8.69464 13.2921 8.33362Z" fill="#75AF2B"/>
<path d="M13.6725 9.88814C13.6725 9.88814 13.7509 9.31961 13.4802 8.95955C13.2267 8.6223 13.2916 8.33374 13.2916 8.33374C14.3642 8.69468 13.6725 9.88814 13.6725 9.88814Z" fill="#699C21"/>
<path d="M13.6204 8.42693C13.6204 8.42693 13.7541 7.85028 14.2775 7.7436C14.7883 7.63948 15.0194 7.6394 15.0194 7.6394C15.0194 7.6394 14.6188 8.95842 13.6204 8.42693Z" fill="#75AF2B"/>
<path d="M15.0196 7.6394C15.0196 7.6394 14.657 8.0855 14.208 8.13547C13.7876 8.18223 13.6206 8.42693 13.6206 8.42693C14.6191 8.95834 15.0196 7.6394 15.0196 7.6394Z" fill="#699C21"/>
<path d="M14.2422 8.63984C14.2422 8.63984 14.7422 8.31962 15.1918 8.60674C15.6307 8.88695 15.7963 9.04738 15.7963 9.04738C15.7963 9.04738 14.585 9.71416 14.2422 8.63984Z" fill="#75AF2B"/>
<path d="M15.7963 9.04729C15.7963 9.04729 15.2239 9.11493 14.8672 8.8389C14.5332 8.5803 14.2422 8.63967 14.2422 8.63967C14.585 9.71398 15.7963 9.04729 15.7963 9.04729Z" fill="#699C21"/>
</svg>
