<svg width="25" height="24" viewBox="0 0 25 24" fill="none" xmlns="http://www.w3.org/2000/svg">
<g clip-path="url(#clip0_198_1746)">
<path d="M7.89053 17.4711L7.89049 17.471L7.88231 17.4756L5.53231 18.8156L5.53134 18.8162C4.80545 19.2323 4.25691 19.2076 3.92105 19.0126C3.58504 18.8175 3.28998 18.3521 3.28998 17.51V7.77999C3.28998 7.57476 3.36689 7.30852 3.51718 7.05014C3.66725 6.79215 3.86251 6.59014 4.04805 6.48411L4.04848 6.48387L7.99998 4.22065V17.3812C7.99925 17.3834 7.99716 17.3881 7.99184 17.3955C7.97931 17.4131 7.95438 17.4371 7.9166 17.4571L8.15018 17.8991L7.91659 17.4571L7.89053 17.4711Z" fill="#2F383C" stroke="#2F383C"/>
<path d="M15 6.55035V19.7035L10.75 17.6559L10.75 4.44559L15 6.55035Z" fill="#2F383C" stroke="#2F383C"/>
<path d="M22.5 6.49V16.22C22.5 16.85 22.05 17.63 21.49 17.95L17.9986 19.951C17.6653 20.142 17.25 19.9013 17.25 19.5172V6.33032C17.25 6.15081 17.3462 5.98507 17.5021 5.89608L19.51 4.75C21.15 3.81 22.5 4.59 22.5 6.49Z" fill="#2F383C"/>
</g>
<defs>
<clipPath id="clip0_198_1746">
<rect width="24" height="24" fill="white" transform="translate(0.5)"/>
</clipPath>
</defs>
</svg>
