<svg width="24" height="24" viewBox="0 0 24 24" fill="none" xmlns="http://www.w3.org/2000/svg">
<path d="M3.85989 17.5992L3.85992 17.5992L3.85791 17.5938C3.62758 16.9823 3.69852 16.292 4.08774 15.6489L4.08834 15.648L5.23834 13.738L5.23874 13.7373C5.3915 13.4827 5.5211 13.1344 5.61206 12.804C5.70309 12.4733 5.76999 12.1076 5.76999 11.81V8.92004C5.76999 5.47619 8.57613 2.67004 12.02 2.67004C15.4639 2.67004 18.27 5.47619 18.27 8.92004V11.81C18.27 12.103 18.3371 12.4688 18.4277 12.8005C18.5184 13.1328 18.6474 13.4845 18.7985 13.7426L18.7985 13.7426L18.8012 13.7473L19.9407 15.6464C19.9408 15.6466 19.941 15.6468 19.9411 15.6471C20.2929 16.2366 20.3589 16.9487 20.1206 17.5977C19.8839 18.2425 19.3705 18.7322 18.7237 18.9451L18.7206 18.9461C16.5736 19.6683 14.2975 20.03 12.02 20.03C9.74334 20.03 7.46782 19.6686 5.31095 18.9467C4.59575 18.6991 4.08169 18.2091 3.85989 17.5992ZM4.52164 15.9021L4.52163 15.9021L4.52022 15.9045C4.247 16.364 4.13394 16.9143 4.3315 17.4249C4.51718 17.9413 4.95777 18.2889 5.46842 18.4632L5.4712 18.4642C9.75402 19.8986 14.2953 19.8987 18.5781 18.4644C19.0818 18.2965 19.4778 17.9153 19.6603 17.4099C19.8388 16.9155 19.8001 16.3671 19.5177 15.9011C19.5177 15.901 19.5176 15.901 19.5176 15.9009L18.3701 13.995C18.035 13.4202 17.77 12.4392 17.77 11.8V8.92004C17.77 5.7439 15.1961 3.17004 12.02 3.17004C8.85447 3.17004 6.26999 5.74328 6.26999 8.92004V11.81C6.26999 12.4478 5.99569 13.4389 5.67016 13.9946L4.52164 15.9021Z" fill="#2F383C" stroke="#2F383C"/>
<path d="M13.8074 3.42929L13.8074 3.42927L13.803 3.42806C13.4953 3.34318 13.1953 3.27872 12.9033 3.23545L12.9033 3.23537L12.8942 3.23419C11.9797 3.11584 11.0887 3.17951 10.2469 3.43097L10.2469 3.43087L10.237 3.43404C10.1524 3.46123 10.0549 3.43554 9.99076 3.3646C9.92496 3.29187 9.90813 3.19439 9.94304 3.1087L9.94309 3.10872L9.94574 3.10192C10.2811 2.24302 11.0967 1.68005 12.03 1.68005C12.9641 1.68005 13.7764 2.23328 14.1121 3.09649C14.1497 3.20088 14.1262 3.29906 14.0721 3.3613C14.0239 3.41074 13.9513 3.44005 13.88 3.44005C13.8583 3.44005 13.8345 3.43704 13.8074 3.42929Z" fill="#2F383C" stroke="#2F383C"/>
<path d="M12.02 22.3101C11.1634 22.3101 10.3304 21.9633 9.72357 21.3565C9.23584 20.8688 8.91611 20.2349 8.80942 19.5601H9.31672C9.41833 20.1017 9.68246 20.6096 10.0765 21.0036C10.59 21.5171 11.2971 21.8101 12.02 21.8101C13.3655 21.8101 14.4886 20.8384 14.7245 19.5601H15.2317C14.991 21.1169 13.6439 22.3101 12.02 22.3101Z" fill="#292D32" stroke="#2F383C"/>
</svg>
