<svg width="142" height="142" viewBox="0 0 142 142" fill="none" xmlns="http://www.w3.org/2000/svg">
<path d="M71 11.8333C38.3992 11.8333 11.8333 38.3991 11.8333 70.9999C11.8333 103.601 38.3992 130.167 71 130.167C103.601 130.167 130.167 103.601 130.167 70.9999C130.167 38.3991 103.601 11.8333 71 11.8333ZM99.2817 57.3916L65.7342 90.9391C64.9058 91.7674 63.7817 92.2408 62.5983 92.2408C61.415 92.2408 60.2908 91.7674 59.4625 90.9391L42.7183 74.1949C41.0025 72.4791 41.0025 69.6391 42.7183 67.9233C44.4342 66.2074 47.2742 66.2074 48.99 67.9233L62.5983 81.5316L93.01 51.1199C94.7259 49.4041 97.5658 49.4041 99.2817 51.1199C100.998 52.8358 100.998 55.6166 99.2817 57.3916Z" fill="#55CC4B"/>
</svg>
