<svg width="28" height="29" viewBox="0 0 28 29" fill="none" xmlns="http://www.w3.org/2000/svg">
<path d="M26.5222 12.2748C26.3647 10.8845 23.5629 10.9361 22.6151 11.081C22.4952 11.0993 22.3765 11.1205 22.2587 11.1434C22.2494 11.0919 22.2403 11.0386 22.2322 10.982C22.1555 10.4412 22.3935 10.0669 22.5806 9.55153C23.081 8.17337 22.543 6.59394 21.5737 5.4803C20.4058 4.13858 18.573 3.31891 16.9948 2.51032C15.5064 1.74778 13.9777 0.913246 12.3403 0.513031C10.6002 0.0877482 8.7932 -0.0757779 7.00302 0.0323646C8.06863 0.630792 9.20773 1.10388 10.3881 1.43807C9.94825 1.427 9.50823 1.41592 9.06836 1.40484C9.60795 1.83187 10.2745 2.1034 10.9645 2.17729C10.6414 2.27567 10.3181 2.37405 9.9949 2.47242C10.9329 2.91665 11.8708 3.36103 12.8088 3.80526C12.5192 3.83805 12.2296 3.87099 11.9399 3.90393C12.2512 4.17691 12.6721 4.32717 13.0901 4.31434C12.828 4.36725 12.566 4.42015 12.3039 4.47306C12.6036 4.90738 13.0844 5.21825 13.6104 5.3178C13.367 5.35846 13.1236 5.39912 12.8802 5.43979C13.0437 5.9308 13.5678 6.28263 14.0953 6.25537C13.7534 6.35258 13.4114 6.44994 13.0697 6.54715C13.477 6.73137 13.9069 6.86619 14.3468 6.95334C14.1099 7.01776 13.8986 7.28054 13.9701 7.52947C14.0305 7.73949 14.2253 7.87518 14.4447 7.91876C14.318 7.97035 14.2269 8.05721 14.228 8.19246C14.2295 8.36576 14.4145 8.49401 14.5915 8.50188C14.7188 8.50756 14.8409 8.46778 14.9587 8.41662C14.5666 8.61148 14.2396 8.93037 14.0437 9.31557C14.3401 9.30231 14.6771 9.25378 14.9557 9.30799C14.7559 9.65997 14.2532 9.66871 13.9132 9.83165C13.8218 9.87538 13.7197 9.95525 13.745 10.0517C13.7664 10.1326 13.864 10.1651 13.9476 10.1822C14.2633 10.2467 14.5859 10.2795 14.9084 10.28C14.514 10.4136 14.1335 10.5868 13.7751 10.7962C13.6736 10.8555 13.559 10.9593 13.6058 11.0655C13.6455 11.1555 13.7698 11.1662 13.8698 11.1601C14.1959 11.1404 14.52 11.0896 14.8358 11.0084C14.2131 11.1681 13.7962 11.3961 13.6283 12.086C13.8434 12.0958 14.0584 12.1056 14.2734 12.1153C13.8828 12.1354 13.5466 12.5027 13.5694 12.8846C13.7112 12.8837 13.853 12.8828 13.9949 12.8821C13.9126 12.943 13.8355 13.0105 13.7644 13.0835C12.7387 13.4847 11.7435 13.9603 10.7929 14.5109C8.25942 15.9787 5.67671 15.8922 2.84774 15.3615C1.90361 15.1844 0.907164 14.9935 0 15.3042C1.93253 15.7298 3.86506 16.1554 5.79759 16.5809C6.25251 16.6812 6.86499 16.8447 7.08336 17.2974C7.34838 17.8466 6.9337 18.1446 6.61502 18.5161C5.78388 19.4853 4.99745 20.4028 3.95151 21.168C3.47751 21.5147 2.94373 21.8745 2.78558 22.4324C4.37603 22.0187 5.71501 20.995 7.0051 19.9957C7.93314 19.2769 8.89798 18.0508 10.1614 17.9227C10.8697 17.8508 11.7105 18.0868 12.4335 18.1047C12.7645 18.1129 13.0959 18.1127 13.4271 18.1044C13.6046 18.0999 13.7819 18.0914 13.9592 18.0823C14.1481 18.1375 14.3371 18.1929 14.5259 18.2481C14.3322 18.3108 14.1669 18.4532 14.0789 18.6333C14.307 18.7358 14.535 18.8382 14.7631 18.9407C14.4686 18.9902 14.1998 19.1707 14.0469 19.4218C14.1922 19.4788 14.3375 19.5358 14.483 19.5926C14.1597 19.6707 13.8643 19.8554 13.6559 20.1096C13.7884 20.1698 13.9211 20.23 14.0536 20.29C13.7268 20.3094 13.4311 20.5681 13.3751 20.8833C13.6304 20.9192 13.8857 20.9552 14.1412 20.991C13.9636 21.1394 13.7859 21.2876 13.6082 21.436C13.771 21.4571 13.9337 21.4783 14.0964 21.4995C13.7981 21.7579 13.4997 22.0162 13.2013 22.2746C13.338 22.3125 13.4745 22.3502 13.6112 22.3881C13.2833 22.5579 12.9555 22.7276 12.6276 22.8974C12.9348 22.87 13.2418 22.8426 13.5489 22.8152C13.006 23.261 12.4633 23.7068 11.9204 24.1527C12.0963 24.1517 12.2722 24.1506 12.4481 24.1495C11.927 24.4313 11.5071 24.8882 11.2762 25.4252C11.4223 25.4632 11.5683 25.5011 11.7144 25.5391C11.2996 25.7439 10.9053 25.9882 10.5387 26.2673C10.7752 26.4055 11.1133 26.3418 11.2804 26.1275C10.5512 27.0851 9.82199 28.0426 9.0928 29C12.55 26.9019 15.9342 24.6416 18.8473 21.8638C19.8547 20.903 20.8253 19.8484 21.3212 18.5606C21.5907 17.8609 21.6533 17.0771 21.959 16.3948C22.0192 16.2603 22.0869 16.1038 22.1529 15.9368C23.1726 15.4841 24.1831 14.99 25.1241 14.4748C25.8331 14.0865 26.2173 13.5706 26.8366 13.0994C26.9137 13.0408 28.0025 12.3248 28 12.3248C27.5074 12.309 27.0132 12.303 26.5222 12.2748Z" fill="url(#paint0_linear_1_4140)"/>
<defs>
<linearGradient id="paint0_linear_1_4140" x1="-14.7368" y1="14.5" x2="27.9994" y2="14.4998" gradientUnits="userSpaceOnUse">
<stop offset="1.1e-07" stop-color="#2F3C33" stop-opacity="0.06"/>
<stop offset="1" stop-color="#2F3C33"/>
</linearGradient>
</defs>
</svg>
